<svg width="40" height="40" viewBox="0 0 40 40" fill="none" xmlns="http://www.w3.org/2000/svg">
<path d="M39.525 37.2316L22.2933 19.9999L39.5249 2.76824C40.1582 2.13504 40.1582 1.10824 39.5249 0.47496C38.8917 -0.15832 37.8649 -0.15832 37.2316 0.47496L20 17.7066L2.76824 0.47496C2.13503 -0.15832 1.10824 -0.15832 0.47496 0.47496C-0.15832 1.10816 -0.15832 2.13496 0.47496 2.76824L17.7066 19.9999L0.47496 37.2316C-0.15832 37.8649 -0.15832 38.8916 0.47496 39.5249C1.10816 40.1581 2.13496 40.1582 2.76824 39.5249L20 22.2931L37.2318 39.5249C37.865 40.1581 38.8918 40.1582 39.525 39.5249C40.1583 38.8916 40.1583 37.8649 39.525 37.2316Z" fill="#1A4073"/>
</svg>
