<svg width="94" height="67" viewBox="0 0 94 67" fill="none" xmlns="http://www.w3.org/2000/svg">
<path d="M30.2578 61.6643C16.1222 60.0405 5.13656 47.9743 5.13656 33.3207C5.13656 18.6802 16.0959 6.61408 30.2184 4.9903" stroke="#1A4073" stroke-miterlimit="10" stroke-linecap="round" stroke-linejoin="round"/>
<path d="M61.1152 39.8422C58.4115 51.4595 48.6596 60.3441 36.6502 61.6775C35.9284 61.7567 35.1934 61.8095 34.4584 61.8359C34.1434 61.8491 33.8284 61.8491 33.5002 61.8491C33.1459 61.8491 32.8046 61.8491 32.4502 61.8359" stroke="#1A4073" stroke-miterlimit="10" stroke-linecap="round" stroke-linejoin="round"/>
<path d="M32.4502 4.81868C32.7915 4.80548 33.1459 4.80548 33.5002 4.80548C46.9402 4.80548 58.1884 14.2049 61.1152 26.8123" stroke="#1A4073" stroke-miterlimit="10" stroke-linecap="round" stroke-linejoin="round"/>
<path d="M48.9871 33.3207L44.9709 24.1324L65.7871 33.3207L48.9871 33.3207Z" stroke="#1A4073" stroke-miterlimit="10" stroke-linejoin="round"/>
<path d="M48.9871 33.3207L44.9709 42.5089L65.7871 33.3207L48.9871 33.3207Z" stroke="#1A4073" stroke-miterlimit="10" stroke-linejoin="round"/>
<path d="M32.4492 1.02985L32.4492 8.62071" stroke="#1A4073" stroke-miterlimit="10" stroke-linecap="round"/>
<path d="M8.91602 33.3207L1.36913 33.3207" stroke="#1A4073" stroke-miterlimit="10" stroke-linecap="round"/>
<path d="M30.2969 58.0471L30.2969 65.6379" stroke="#1A4073" stroke-miterlimit="10" stroke-linecap="round"/>
<path d="M80.0113 28.3699V38.1699H78.9893V29.2659H72.7873V38.1699H71.7653V28.3699H80.0113ZM85.32 30.8059H86.314V34.0679H90.948V30.8059H91.942V38.1699H90.948V34.9219H86.314V38.1699H85.32V30.8059Z" fill="#1A4073"/>
</svg>
