<svg width="748" height="1245" viewBox="0 0 748 1245" fill="none" xmlns="http://www.w3.org/2000/svg">
<path d="M676.938 1060.73L941.084 1149.62L1213.53 709.662" stroke="#AADBF6" stroke-width="2.32" stroke-miterlimit="10" stroke-linecap="round" stroke-linejoin="round"/>
<path d="M616.127 293.838L210.419 638.078L326.552 773.574L677.305 1061" stroke="#AADBF6" stroke-width="2.32" stroke-miterlimit="10" stroke-linecap="round" stroke-linejoin="round"/>
<path d="M553.041 347.556L164.451 298.463" stroke="#AADBF6" stroke-width="2.32" stroke-miterlimit="10" stroke-linecap="round" stroke-linejoin="round"/>
<path d="M946.107 470.696L812.277 292.387L776.851 450.978L814.135 637.408L946.107 470.696Z" stroke="#AADBF6" stroke-width="2.32" stroke-miterlimit="10" stroke-linecap="round" stroke-linejoin="round"/>
<path d="M615.779 293.963L678.675 306.44L811.638 291.041" stroke="#AADBF6" stroke-width="2.32" stroke-miterlimit="10" stroke-linecap="round" stroke-linejoin="round"/>
<path d="M759.132 1088.12L752.169 987.594L814.406 636.6" stroke="#AADBF6" stroke-width="2.32" stroke-miterlimit="10" stroke-linecap="round" stroke-linejoin="round"/>
<path d="M327.339 774.301L752.167 987.717" stroke="#AADBF6" stroke-width="2.32" stroke-miterlimit="10" stroke-linecap="round" stroke-linejoin="round"/>
<path d="M678.676 306.44L327.586 773.682" stroke="#AADBF6" stroke-width="2.32" stroke-miterlimit="10" stroke-linecap="round" stroke-linejoin="round"/>
<path d="M145.811 337.557L92.5047 459.865L209.813 637.531L164.453 298.463L145.811 337.557Z" stroke="#AADBF6" stroke-width="2.32" stroke-linecap="round" stroke-linejoin="round"/>
</svg>
