<svg width="58" height="83" viewBox="0 0 58 83" fill="none" xmlns="http://www.w3.org/2000/svg">
<path d="M57.1616 1.30249H1.16162V82.3025H57.1616V1.30249Z" stroke="#194173" stroke-miterlimit="10"/>
<path d="M56.8285 81.7809C56.8285 74.3566 53.896 67.2365 48.6763 61.9868C43.4565 56.7371 36.3769 53.7878 28.995 53.7878C21.6132 53.7878 14.5336 56.7371 9.31384 61.9868C4.09406 67.2365 1.16162 74.3566 1.16162 81.7809" stroke="#194173" stroke-miterlimit="10"/>
<path d="M28.9951 60.9793C32.3952 60.9793 35.1514 58.2073 35.1514 54.7878C35.1514 51.3683 32.3952 48.5962 28.9951 48.5962C25.5951 48.5962 22.8389 51.3683 22.8389 54.7878C22.8389 58.2073 25.5951 60.9793 28.9951 60.9793Z" fill="#194173"/>
<path d="M56.8286 1.30249L28.9916 82.2114L1.1582 1.30249" stroke="#194173" stroke-miterlimit="10" stroke-linejoin="round"/>
</svg>
