<svg width="69" height="51" viewBox="0 0 69 51" fill="none" xmlns="http://www.w3.org/2000/svg">
<g clip-path="url(#clip0)">
<path d="M50.9805 18.9829H35.7441V19.8391H50.9805V18.9829Z" fill="#1A4073"/>
<path d="M32.4087 0.23877H17.1724V1.09492H32.4087V0.23877Z" fill="#1A4073"/>
<path d="M67.1982 0.23877H51.9619V1.09492H67.1982V0.23877Z" fill="#1A4073"/>
<path d="M34.2828 1.91846H33.4272V18.1788H34.2828V1.91846Z" fill="#1A4073"/>
<path d="M35.646 20.5757H34.7905V36.836H35.646V20.5757Z" fill="#1A4073"/>
<path d="M51.8965 20.5757H51.041V36.836H51.8965V20.5757Z" fill="#1A4073"/>
<path d="M68.0552 2.23466L52.7905 17.5107L53.3955 18.1161L68.6601 2.84005L68.0552 2.23466Z" fill="#1A4073"/>
<path d="M26.049 36.7446C24.4413 36.7445 22.8638 36.3076 21.4848 35.4806C20.1057 34.6536 18.9769 33.4674 18.2187 32.0487C17.4604 30.63 17.1013 29.0319 17.1795 27.4249C17.2577 25.8179 17.7703 24.2623 18.6627 22.924C19.5551 21.5857 20.7937 20.5149 22.2466 19.8259C23.6994 19.1369 25.3118 18.8555 26.9119 19.0117C28.512 19.1679 30.0397 19.7559 31.3321 20.7129C32.6245 21.6698 33.633 22.96 34.2502 24.4456L33.4598 24.7737C32.7459 23.0576 31.4599 21.6421 29.8206 20.768C28.1813 19.8939 26.29 19.6153 24.4685 19.9796C22.6471 20.3439 21.008 21.3285 19.8303 22.7659C18.6525 24.2034 18.0089 26.0048 18.0089 27.8637C18.0089 29.7226 18.6525 31.524 19.8303 32.9614C21.008 34.3989 22.6471 35.3835 24.4685 35.7478C26.29 36.112 28.1813 35.8334 29.8206 34.9594C31.4599 34.0853 32.7459 32.6697 33.4598 30.9536L34.2502 31.2839C33.5767 32.9042 32.4379 34.2881 30.9779 35.2601C29.518 36.2322 27.8026 36.7489 26.049 36.7446Z" fill="#1A4073"/>
<path d="M8.94302 18.0732C7.18596 18.0774 5.46727 17.559 4.00515 16.5839C2.54303 15.6088 1.40343 14.2208 0.731023 12.5963C0.0586165 10.9718 -0.116266 9.18391 0.228577 7.45973C0.57342 5.73554 1.42244 4.15279 2.66784 2.9124C3.69668 1.8745 4.96603 1.10733 6.36285 0.679204C7.75968 0.251074 9.24062 0.175275 10.6738 0.458555C12.107 0.741835 13.4479 1.3754 14.5772 2.30284C15.7065 3.23027 16.5891 4.42279 17.1464 5.7742L16.3473 6.10666C15.6334 4.39056 14.3474 2.97503 12.7081 2.10095C11.0688 1.22687 9.17747 0.948259 7.356 1.31253C5.53454 1.67679 3.89548 2.66143 2.71775 4.09888C1.54001 5.53632 0.896382 7.33776 0.896382 9.19662C0.896382 11.0555 1.54001 12.8569 2.71775 14.2944C3.89548 15.7318 5.53454 16.7165 7.356 17.0807C9.17747 17.445 11.0688 17.1664 12.7081 16.2923C14.3474 15.4182 15.6334 14.0027 16.3473 12.2866L17.1377 12.6169C16.4639 14.2353 15.3258 15.6175 13.8672 16.5887C12.4086 17.5599 10.695 18.0765 8.94302 18.0732Z" fill="#1A4073"/>
<path d="M43.0157 18.0723C41.2633 18.0752 39.5493 17.558 38.0906 16.586C36.632 15.614 35.4941 14.2308 34.8211 12.6116L35.6115 12.2813C36.3253 13.9974 37.6113 15.4129 39.2507 16.287C40.89 17.1611 42.7813 17.4397 44.6027 17.0754C46.4242 16.7112 48.0633 15.7265 49.241 14.2891C50.4187 12.8516 51.0624 11.0502 51.0624 9.19133C51.0624 7.33247 50.4187 5.53103 49.241 4.09359C48.0633 2.65614 46.4242 1.6715 44.6027 1.30724C42.7813 0.942973 40.89 1.22158 39.2507 2.09566C37.6113 2.96974 36.3253 4.38527 35.6115 6.10138L34.8037 5.77326C35.3057 4.55969 36.0703 3.47261 37.0425 2.59031C38.0148 1.70801 39.1704 1.05245 40.4262 0.670825C41.682 0.289204 43.0068 0.191023 44.3051 0.383354C45.6034 0.575684 46.8429 1.05374 47.9344 1.78309C49.0259 2.51244 49.9422 3.47495 50.6173 4.60128C51.2925 5.72762 51.7096 6.98976 51.8387 8.29682C51.9678 9.60388 51.8057 10.9233 51.364 12.1601C50.9223 13.397 50.2121 14.5204 49.2844 15.4495C48.4648 16.2799 47.4887 16.9393 46.4127 17.3895C45.3367 17.8397 44.182 18.0718 43.0157 18.0723Z" fill="#1A4073"/>
<path d="M14.0869 41.3013H8.17871V42.001H10.7322V47.944H11.5356V42.001H14.0869V41.3013Z" fill="#1A4073"/>
<path d="M51.8747 41.3013H51.0713V47.944H51.8747V41.3013Z" fill="#1A4073"/>
<path d="M59.2119 41.3013H53.3037V42.001H55.855V47.944H56.6584V42.001H59.2119V41.3013Z" fill="#1A4073"/>
<path d="M61.4421 41.3013H60.6387V47.944H61.4421V41.3013Z" fill="#1A4073"/>
<path d="M38.0673 47.944V41.3403H37.2661L33.2209 46.6206V41.3403H32.3784V47.944H33.1796L37.2357 42.6724V47.944H38.0673Z" fill="#1A4073"/>
<path d="M35.6308 38.6675H34.7905V39.5084H35.6308V38.6675Z" fill="#1A4073"/>
<path d="M51.8813 38.6675H51.041V39.5084H51.8813V38.6675Z" fill="#1A4073"/>
<path d="M61.459 38.6675H60.6187V39.5084H61.459V38.6675Z" fill="#1A4073"/>
<path d="M48.6243 43.5916L49.3713 43.2809C49.0646 42.5763 48.5249 41.9989 47.8428 41.6458C47.1607 41.2927 46.3779 41.1855 45.6261 41.3423C44.8742 41.499 44.1993 41.9101 43.7148 42.5063C43.2303 43.1026 42.9658 43.8477 42.9658 44.6162C42.9658 45.3847 43.2303 46.1298 43.7148 46.726C44.1993 47.3223 44.8742 47.7334 45.6261 47.8901C46.3779 48.0468 47.1607 47.9396 47.8428 47.5865C48.5249 47.2335 49.0646 46.6561 49.3713 45.9515L48.6243 45.6386C48.3895 46.17 47.9794 46.6045 47.4626 46.8693C46.9457 47.1341 46.3537 47.2131 45.7856 47.093C45.2175 46.9729 44.7079 46.6611 44.3422 46.2098C43.9766 45.7584 43.777 45.195 43.777 44.614C43.777 44.033 43.9766 43.4696 44.3422 43.0182C44.7079 42.5669 45.2175 42.2551 45.7856 42.135C46.3537 42.0149 46.9457 42.0939 47.4626 42.3587C47.9794 42.6235 48.3895 43.058 48.6243 43.5894V43.5916Z" fill="#1A4073"/>
<path d="M6.6521 43.6352L7.33173 43.3527C7.0251 42.6481 6.48532 42.0707 5.80322 41.7176C5.12112 41.3645 4.33831 41.2573 3.5865 41.414C2.83469 41.5708 2.15976 41.9818 1.67527 42.5781C1.19077 43.1744 0.92627 43.9194 0.92627 44.688C0.92627 45.4565 1.19077 46.2015 1.67527 46.7978C2.15976 47.3941 2.83469 47.8052 3.5865 47.9619C4.33831 48.1186 5.12112 48.0114 5.80322 47.6583C6.48532 47.3053 7.0251 46.7278 7.33173 46.0232L6.6521 45.7386C6.41098 46.286 5.98911 46.7338 5.45722 47.0069C4.92534 47.28 4.3158 47.3617 3.73083 47.2385C3.14586 47.1152 2.62105 46.7943 2.24441 46.3297C1.86777 45.8652 1.66221 45.2851 1.66221 44.6869C1.66221 44.0886 1.86777 43.5086 2.24441 43.044C2.62105 42.5794 3.14586 42.2586 3.73083 42.1353C4.3158 42.012 4.92534 42.0937 5.45722 42.3668C5.98911 42.6399 6.41098 43.0877 6.6521 43.6352Z" fill="#1A4073"/>
<path d="M27.2346 42.1442C27.7367 42.1442 28.2274 42.2932 28.6448 42.5723C29.0623 42.8515 29.3876 43.2482 29.5797 43.7123C29.7718 44.1765 29.8221 44.6873 29.7242 45.18C29.6262 45.6728 29.3845 46.1254 29.0295 46.4806C28.6745 46.8359 28.2222 47.0778 27.7298 47.1758C27.2374 47.2738 26.7271 47.2235 26.2633 47.0313C25.7995 46.839 25.403 46.5134 25.1241 46.0957C24.8452 45.678 24.6963 45.1868 24.6963 44.6844C24.6969 44.0109 24.9645 43.3651 25.4404 42.8889C25.9163 42.4126 26.5616 42.1448 27.2346 42.1442ZM27.2346 41.2881C26.5634 41.2881 25.9072 41.4873 25.3491 41.8605C24.791 42.2337 24.356 42.7641 24.0992 43.3847C23.8423 44.0053 23.7751 44.6882 23.906 45.347C24.037 46.0059 24.3602 46.611 24.8348 47.086C25.3095 47.561 25.9142 47.8845 26.5725 48.0155C27.2309 48.1466 27.9132 48.0793 28.5334 47.8223C29.1535 47.5652 29.6836 47.1299 30.0565 46.5713C30.4294 46.0128 30.6284 45.3562 30.6284 44.6844C30.6284 43.7837 30.2709 42.9198 29.6344 42.2829C28.998 41.6459 28.1347 41.2881 27.2346 41.2881Z" fill="#1A4073"/>
<path d="M19.1026 48.0287C19.6603 48.0291 20.2091 47.8898 20.6992 47.6235C21.1893 47.3573 21.605 46.9725 21.9084 46.5043C22.2118 46.0361 22.3934 45.4994 22.4365 44.943C22.4796 44.3867 22.3829 43.8283 22.1552 43.3189C21.9275 42.8095 21.576 42.3652 21.1328 42.0266C20.6896 41.6879 20.1688 41.4656 19.6177 41.38C19.0667 41.2943 18.503 41.348 17.978 41.5362C17.4531 41.7243 16.9835 42.041 16.6121 42.4572L16.5187 42.5615V41.3425H15.7153V50.469H16.5187V46.8075L16.6121 46.9118C16.9255 47.2627 17.3093 47.5435 17.7384 47.7359C18.1675 47.9284 18.6324 48.0281 19.1026 48.0287ZM19.1026 42.1987C19.5939 42.1987 20.0742 42.3444 20.4827 42.6176C20.8912 42.8908 21.2096 43.279 21.3976 43.7332C21.5856 44.1875 21.6348 44.6873 21.5389 45.1695C21.4431 45.6517 21.2065 46.0947 20.8591 46.4423C20.5117 46.79 20.0691 47.0267 19.5872 47.1226C19.1054 47.2186 18.6059 47.1693 18.152 46.9812C17.6981 46.793 17.3102 46.4744 17.0372 46.0656C16.7643 45.6568 16.6186 45.1762 16.6186 44.6845C16.6198 44.0256 16.8818 43.394 17.3474 42.928C17.813 42.4621 18.4442 42.1998 19.1026 42.1987Z" fill="#1A4073"/>
</g>
<defs>
<clipPath id="clip0">
<rect width="68.5993" height="50.2368" fill="white" transform="translate(0.0625 0.23877)"/>
</clipPath>
</defs>
</svg>
