<svg width="86" height="104" viewBox="0 0 86 104" fill="none" xmlns="http://www.w3.org/2000/svg">
<g clip-path="url(#clip0)">
<path d="M80.3556 76.3207L73.4098 9.96952L73.3315 9.97858L73.3716 9.89346L52.3266 0L52.292 0.0724398L52.1992 0L30.3661 28.2696L30.3224 28.3276L26.7367 54.0093L5.64258 68.3723L5.85372 68.5534L10.0729 81.147L22.6722 83.1246V83.1627L23.1491 83.1971L23.8444 83.3057L23.7716 83.2424L60.9761 85.9407V85.8719L61.0071 85.9335L80.3556 76.3207ZM27.9744 49.087L31.0141 47.3158L33.3094 83.3836L23.282 82.6592L27.9744 49.087ZM31.5347 46.9138L35.175 40.0683L51.7715 57.1405L64.2525 77.2788L41.3546 83.9468V83.9686L33.8572 83.4253L31.5347 46.9138ZM64.8895 77.2643L52.252 56.8942L51.7824 47.1402L61.7625 43.1107L68.8248 46.5788L64.935 77.3041L64.8895 77.2643ZM61.4421 42.6525L51.7551 46.5661L49.711 4.11458L52.3976 0.633848L69.48 8.66561L61.4421 42.6525ZM51.1763 45.8978L36.3582 21.4023L49.1959 4.78103L51.1763 45.8978ZM51.2309 47.0442L51.675 56.2694L35.4062 39.5358L33.4167 25.2127L36.0014 21.8659L51.2309 47.0442ZM64.6165 77.7424L68.8029 81.464L60.8924 85.3884L42.8508 84.0772L64.6165 77.7424ZM69.3199 81.2032L65.4374 77.7442L69.3581 46.7237L76.2748 42.6544L79.7659 76.0111L69.3199 81.2032ZM76.2202 42.0513L69.2161 46.1659L62.01 42.6254L69.986 8.90285L72.8983 10.2683L76.2202 42.0513ZM30.843 28.5449L32.9453 25.8175L34.8474 39.5087L31.0523 46.6639L28.0709 48.4024L30.843 28.5449ZM10.4879 80.6617L6.66552 69.2524L22.0388 82.4727L10.4879 80.6617ZM6.53811 68.4212L26.6347 54.7355L22.7741 82.3821L6.53811 68.4212Z" fill="#1A4073"/>
<path d="M5.0963 102.008L5.6733 102.437C5.42707 102.918 5.04827 103.319 4.58119 103.594C4.10227 103.869 3.55753 104.009 3.00491 104C2.60652 104.012 2.20988 103.942 1.83972 103.795C1.46956 103.648 1.13382 103.427 0.853457 103.145C0.304688 102.553 0 101.777 0 100.972C0 100.166 0.304688 99.3907 0.853457 98.7987C1.13343 98.5174 1.46861 98.2965 1.83814 98.1498C2.20766 98.003 2.60359 97.9335 3.00127 97.9457C3.51129 97.9392 4.01489 98.0594 4.46652 98.2952C4.90742 98.5281 5.27903 98.8722 5.54407 99.2931L4.93977 99.7223C4.76234 99.381 4.48835 99.099 4.15163 98.9109C3.80057 98.7149 3.40381 98.6143 3.00127 98.6194C2.69964 98.6111 2.39964 98.6662 2.12083 98.7811C1.84202 98.8959 1.59066 99.0679 1.38313 99.2858C0.968608 99.7499 0.739641 100.349 0.739641 100.97C0.739641 101.591 0.968608 102.19 1.38313 102.654C1.59112 102.871 1.84265 103.043 2.12141 103.157C2.40017 103.271 2.69993 103.326 3.00127 103.317C3.42976 103.325 3.85132 103.209 4.21533 102.984C4.58998 102.741 4.89381 102.404 5.0963 102.008Z" fill="#1A4073"/>
<path d="M7.56476 101.9V103.849H6.86035V99.3954H9.95466C10.342 99.3727 10.7246 99.4897 11.0322 99.7249C11.162 99.8384 11.2643 99.9796 11.3314 100.138C11.3986 100.296 11.4288 100.468 11.4199 100.639C11.4222 100.944 11.3091 101.238 11.1032 101.463C10.8957 101.696 10.6117 101.847 10.3023 101.889L11.5473 103.849H10.7901L9.516 101.9H7.56476ZM7.56476 101.246H9.9492C10.147 101.259 10.3432 101.204 10.5044 101.089C10.5675 101.033 10.6169 100.963 10.6484 100.885C10.68 100.807 10.693 100.723 10.6864 100.639C10.6927 100.556 10.6796 100.472 10.648 100.395C10.6165 100.317 10.5673 100.248 10.5044 100.192C10.342 100.08 10.1464 100.026 9.9492 100.038H7.56476V101.246Z" fill="#1A4073"/>
<path d="M13.7843 103.848V101.57L11.7402 99.3838H12.6503L14.1374 100.968L15.5936 99.3838H16.5273L14.4723 101.557V103.846L13.7843 103.848Z" fill="#1A4073"/>
<path d="M16.915 103.278L17.2572 102.693C17.5686 102.901 17.9082 103.063 18.2656 103.175C18.603 103.285 18.9553 103.343 19.3104 103.347C19.6496 103.363 19.9859 103.278 20.2769 103.104C20.3872 103.041 20.4789 102.95 20.5428 102.84C20.6067 102.73 20.6405 102.606 20.641 102.479C20.646 102.363 20.6171 102.247 20.5577 102.147C20.4982 102.046 20.4109 101.965 20.306 101.913C19.9724 101.765 19.6097 101.695 19.2449 101.706C18.4276 101.695 17.8688 101.601 17.563 101.424C17.4126 101.333 17.2905 101.202 17.2105 101.046C17.1305 100.89 17.0956 100.714 17.1098 100.54C17.108 100.356 17.1531 100.174 17.2409 100.013C17.3288 99.8507 17.4565 99.7137 17.6122 99.6144C18.0141 99.3622 18.4846 99.2401 18.9591 99.2649C19.3387 99.2643 19.7164 99.3186 20.0803 99.426C20.4502 99.5385 20.8029 99.7006 21.1288 99.9078L20.7775 100.487C20.4965 100.299 20.1901 100.152 19.8674 100.051C19.5689 99.9527 19.2571 99.9007 18.9427 99.8969C18.6585 99.8855 18.3762 99.9479 18.1236 100.078C18.0334 100.119 17.9566 100.184 17.9019 100.267C17.8472 100.349 17.8168 100.445 17.8142 100.543C17.8126 100.638 17.8421 100.731 17.8983 100.807C17.9545 100.884 18.0342 100.94 18.1255 100.967C18.4797 101.07 18.849 101.112 19.2176 101.092C19.9329 101.092 20.4717 101.213 20.8357 101.454C21.0133 101.57 21.1572 101.729 21.253 101.918C21.3489 102.106 21.3933 102.316 21.3818 102.526C21.3834 102.733 21.3345 102.936 21.2394 103.119C21.1442 103.302 21.0057 103.459 20.8357 103.577C20.4169 103.871 19.9117 104.018 19.3996 103.995C18.9612 103.996 18.5249 103.935 18.1036 103.814C17.6835 103.693 17.2831 103.513 16.915 103.278Z" fill="#1A4073"/>
<path d="M23.691 103.848V100.007H21.7998V99.3838H26.2866V100.007H24.3899V103.848H23.691Z" fill="#1A4073"/>
<path d="M25.7412 103.848L28.0201 99.3838H28.4624L30.7613 103.848H30.0095L29.4271 102.714H27.0608L26.4838 103.848H25.7412ZM27.3648 102.124H29.1231L28.2512 100.414L27.3648 102.124Z" fill="#1A4073"/>
<path d="M31.4287 103.848V99.3838H32.1331V103.205H35.4641V103.848H31.4287Z" fill="#1A4073"/>
<path d="M39.9238 103.848V98.0786H43.2493C43.7318 98.05 44.2077 98.2018 44.5835 98.5042C44.7464 98.6531 44.8743 98.836 44.958 99.0398C45.0417 99.2436 45.0791 99.4633 45.0677 99.6832C45.0771 100.075 44.9425 100.457 44.6891 100.757C44.4345 101.056 44.0804 101.253 43.6916 101.313L45.1478 103.848H44.3505L42.8944 101.324H40.6446V103.848H39.9238ZM40.6519 100.65H43.2002C43.4963 100.672 43.7903 100.586 44.0283 100.409C44.1253 100.32 44.2008 100.21 44.2494 100.088C44.2979 99.9657 44.3181 99.8342 44.3087 99.7031C44.3164 99.5719 44.2953 99.4406 44.2469 99.3183C44.1985 99.196 44.1239 99.0857 44.0283 98.995C43.8059 98.8144 43.5231 98.7238 43.2366 98.7414H40.6446L40.6519 100.65Z" fill="#1A4073"/>
<path d="M46.2705 103.848V99.3838H50.4788V100.038H46.9731V101.151H49.2756V101.794H46.9731V103.205H50.6717V103.848H46.2705Z" fill="#1A4073"/>
<path d="M51.2871 103.277L51.6293 102.692C51.9407 102.9 52.2802 103.062 52.6377 103.174C52.9751 103.284 53.3274 103.342 53.6825 103.346C54.0216 103.361 54.3578 103.277 54.649 103.103C54.7593 103.04 54.851 102.949 54.9149 102.839C54.9787 102.729 55.0126 102.605 55.013 102.478C55.0177 102.362 54.9884 102.246 54.9287 102.146C54.869 102.045 54.7813 101.964 54.6763 101.911C54.3428 101.764 53.98 101.693 53.6151 101.705C52.7997 101.694 52.2397 101.6 51.9351 101.423C51.7837 101.332 51.6607 101.202 51.58 101.045C51.4992 100.889 51.464 100.714 51.4782 100.539C51.4762 100.355 51.521 100.174 51.6086 100.012C51.6961 99.85 51.8235 99.7129 51.9788 99.6134C52.3814 99.3613 52.8525 99.2393 53.3275 99.2638C53.7072 99.2634 54.0848 99.3177 54.4488 99.425C54.8186 99.5375 55.1713 99.6995 55.4972 99.9067L55.1441 100.486C54.8632 100.298 54.5568 100.151 54.234 100.05C53.9355 99.9518 53.6237 99.8998 53.3093 99.8959C53.0251 99.8845 52.7429 99.9469 52.4903 100.077C52.3999 100.118 52.3228 100.183 52.2678 100.265C52.2127 100.348 52.182 100.444 52.179 100.542C52.1778 100.637 52.2077 100.73 52.2642 100.806C52.3207 100.883 52.4007 100.939 52.4921 100.966C52.8463 101.069 53.2157 101.112 53.5842 101.091C54.2995 101.091 54.8383 101.212 55.2023 101.453C55.3799 101.569 55.5238 101.728 55.6197 101.917C55.7155 102.105 55.7599 102.315 55.7484 102.525C55.75 102.731 55.7012 102.935 55.606 103.118C55.5109 103.301 55.3723 103.458 55.2023 103.576C54.7829 103.87 54.2771 104.017 53.7644 103.994C53.3266 103.995 52.8909 103.934 52.4702 103.813C52.0519 103.692 51.6533 103.512 51.2871 103.277Z" fill="#1A4073"/>
<path d="M57.0078 103.847V99.374H57.7213V103.847H57.0078Z" fill="#1A4073"/>
<path d="M61.2668 99.3835C61.9165 99.3535 62.5523 99.5777 63.0378 100.008C63.2609 100.216 63.4364 100.469 63.5526 100.75C63.6688 101.032 63.7229 101.334 63.7113 101.638C63.7246 101.939 63.6724 102.238 63.5584 102.517C63.4443 102.795 63.2711 103.046 63.0506 103.252C62.6125 103.654 62.0179 103.855 61.2668 103.855H59.2773V99.3835H61.2668ZM61.2777 100.026H59.9799V103.205H61.2777C61.7361 103.231 62.1868 103.079 62.5337 102.779C62.8299 102.466 62.9935 102.052 62.9904 101.622C62.9874 101.193 62.8179 100.781 62.5173 100.472C62.1795 100.166 61.7338 100.006 61.2777 100.026Z" fill="#1A4073"/>
<path d="M64.8203 103.848V99.3838H69.0267V100.038H65.5265V101.151H67.8273V101.794H65.5265V103.205H69.2215V103.848H64.8203Z" fill="#1A4073"/>
<path d="M70.2295 103.848V99.3838H70.5935L73.4458 102.52V99.3838H74.1338V103.848H73.7697L70.923 100.722V103.848H70.2295Z" fill="#1A4073"/>
<path d="M80.4208 102.756C80.1756 103.147 79.8275 103.464 79.4142 103.673C78.9752 103.89 78.4901 103.999 77.9999 103.99C77.29 104.017 76.5954 103.779 76.0523 103.323C75.812 103.111 75.6196 102.85 75.4879 102.558C75.3562 102.266 75.2881 101.95 75.2881 101.63C75.2881 101.31 75.3562 100.994 75.4879 100.702C75.6196 100.41 75.812 100.149 76.0523 99.9366C76.5939 99.4777 77.289 99.2379 77.9999 99.2647C78.4593 99.2582 78.9147 99.3516 79.3341 99.5382C79.7184 99.7096 80.0514 99.9773 80.3006 100.315L79.7436 100.703C79.5572 100.446 79.3061 100.243 79.0156 100.114C78.6979 99.9732 78.3532 99.9028 78.0054 99.9076C77.4852 99.8886 76.9765 100.063 76.5784 100.397C76.4007 100.548 76.2581 100.736 76.1604 100.947C76.0626 101.159 76.012 101.389 76.012 101.622C76.012 101.855 76.0626 102.085 76.1604 102.296C76.2581 102.507 76.4007 102.695 76.5784 102.847C76.9753 103.18 77.4827 103.354 78.0017 103.336C78.3676 103.344 78.7299 103.263 79.0574 103.1C79.3808 102.928 79.6565 102.679 79.8601 102.376L80.4208 102.756Z" fill="#1A4073"/>
<path d="M81.5986 103.848V99.3838H85.8069V100.038H82.3012V101.151H84.6038V101.794H82.3012V103.205H85.9998V103.848H81.5986Z" fill="#1A4073"/>
</g>
<defs>
<clipPath id="clip0">
<rect width="86" height="104" fill="white"/>
</clipPath>
</defs>
</svg>
