<svg width="135" height="41" viewBox="0 0 135 41" fill="none" xmlns="http://www.w3.org/2000/svg">
<g clip-path="url(#clip0)">
<path d="M29.4365 5.81934H16.4688V7.3492H22.0668V20.3295H23.8266V7.3492H29.4365V5.81934Z" fill="#1A4073"/>
<path d="M112.357 5.81934H110.598V20.3412H112.357V5.81934Z" fill="#1A4073"/>
<path d="M128.467 5.81934H115.499V7.3492H121.097V20.3295H122.869V7.3492H128.467V5.81934Z" fill="#1A4073"/>
<path d="M133.355 5.81934H131.596V20.3412H133.355V5.81934Z" fill="#1A4073"/>
<path d="M82.0636 20.3301V5.90234H80.3038L71.4225 17.4469V5.90234H69.5801V20.3301H71.3398L80.233 8.82085V20.3301H82.0636Z" fill="#1A4073"/>
<path d="M76.7135 0.0654297H74.8711V1.90126H76.7135V0.0654297Z" fill="#1A4073"/>
<path d="M112.381 0.0654297H110.538V1.90126H112.381V0.0654297Z" fill="#1A4073"/>
<path d="M133.403 0.0654297H131.561V1.90126H133.403V0.0654297Z" fill="#1A4073"/>
<path d="M105.223 10.8219L106.841 10.1511C106.164 8.61919 104.979 7.36599 103.484 6.6017C101.989 5.83741 100.276 5.60852 98.6321 5.95343C96.9881 6.29833 95.5131 7.19606 94.4546 8.49602C93.3961 9.79598 92.8184 11.4191 92.8184 13.0931C92.8184 14.7672 93.3961 16.3903 94.4546 17.6903C95.5131 18.9902 96.9881 19.888 98.6321 20.2329C100.276 20.5778 101.989 20.3489 103.484 19.5846C104.979 18.8203 106.164 17.5671 106.841 16.0352L105.223 15.3644C104.708 16.5269 103.806 17.4774 102.671 18.0565C101.535 18.6357 100.234 18.8084 98.9864 18.5457C97.7383 18.283 96.6187 17.6008 95.8153 16.6135C95.0119 15.6261 94.5735 14.3937 94.5735 13.1226C94.5735 11.8515 95.0119 10.619 95.8153 9.63168C96.6187 8.64436 97.7383 7.96218 98.9864 7.69945C100.234 7.43673 101.535 7.60943 102.671 8.1886C103.806 8.76778 104.708 9.71825 105.223 10.8807V10.8219Z" fill="#1A4073"/>
<path d="M13.1151 10.9154L14.6032 10.3035C13.9258 8.77154 12.7403 7.51833 11.2456 6.75404C9.75084 5.98975 8.03782 5.76086 6.39382 6.10577C4.74983 6.45068 3.27487 7.3484 2.21633 8.64836C1.1578 9.94833 0.580078 11.5715 0.580078 13.2455C0.580078 14.9195 1.1578 16.5427 2.21633 17.8426C3.27487 19.1426 4.74983 20.0403 6.39382 20.3852C8.03782 20.7301 9.75084 20.5012 11.2456 19.7369C12.7403 18.9727 13.9258 17.7195 14.6032 16.1875L13.1033 15.5638C12.5739 16.7556 11.6495 17.7299 10.4851 18.3235C9.3206 18.917 7.9868 19.0938 6.70711 18.8242C5.42741 18.5546 4.27957 17.855 3.45588 16.8426C2.6322 15.8302 2.1827 14.5665 2.1827 13.2631C2.1827 11.9598 2.6322 10.6961 3.45588 9.68369C4.27957 8.67127 5.42741 7.97165 6.70711 7.70206C7.9868 7.43246 9.3206 7.60926 10.4851 8.20283C11.6495 8.7964 12.5739 9.77069 13.1033 10.9625L13.1151 10.9154Z" fill="#1A4073"/>
<path d="M58.2893 7.66807C59.3924 7.66807 60.4706 7.99414 61.3876 8.60501C62.3045 9.21588 63.019 10.0841 63.4406 11.0997C63.8622 12.1154 63.9719 13.2328 63.7558 14.3106C63.5398 15.3884 63.0077 16.3781 62.2269 17.1545C61.4461 17.9308 60.4517 18.4589 59.3696 18.6719C58.2875 18.8849 57.1663 18.7732 56.1479 18.351C55.1295 17.9288 54.2597 17.215 53.6486 16.3C53.0375 15.385 52.7125 14.31 52.7148 13.2109C52.7148 12.482 52.8591 11.7603 53.1394 11.087C53.4197 10.4138 53.8305 9.80221 54.3483 9.28736C54.8661 8.7725 55.4807 8.36447 56.157 8.08661C56.8332 7.80875 57.5578 7.66652 58.2893 7.66807ZM58.2893 5.78517C56.8149 5.78284 55.3729 6.21637 54.1458 7.0309C52.9187 7.84543 51.9617 9.00435 51.3959 10.361C50.83 11.7177 50.6807 13.2111 50.967 14.6523C51.2532 16.0936 51.962 17.4178 53.0038 18.4575C54.0455 19.4972 55.3734 20.2056 56.8193 20.493C58.2652 20.7805 59.7642 20.6341 61.1267 20.0725C62.4891 19.5108 63.6537 18.559 64.4731 17.3376C65.2925 16.1162 65.7298 14.68 65.7298 13.2109C65.7298 11.2435 64.9463 9.35652 63.5513 7.96426C62.1563 6.57201 60.2638 5.78828 58.2893 5.78517Z" fill="#1A4073"/>
<path d="M40.4326 20.5184C41.6531 20.5148 42.8533 20.2078 43.9246 19.6252C44.9959 19.0425 45.9043 18.2028 46.5676 17.1819C47.2308 16.1611 47.6279 14.9914 47.7229 13.779C47.8178 12.5666 47.6077 11.3497 47.1114 10.2387C46.6151 9.1277 45.8484 8.15765 44.8809 7.41648C43.9133 6.67531 42.7753 6.18645 41.5702 5.99422C40.3651 5.80199 39.1309 5.91246 37.9795 6.31562C36.828 6.71878 35.7958 7.40189 34.9762 8.30302L34.7636 8.53838V5.94939H33.0039V25.9553H34.7991V17.9529L35.0117 18.1765C35.7015 18.9218 36.5401 19.5152 37.4737 19.9185C38.4072 20.3218 39.4151 20.5261 40.4326 20.5184ZM40.4326 7.77345C41.5123 7.77112 42.5684 8.08801 43.4672 8.68401C44.3661 9.28 45.0673 10.1283 45.482 11.1216C45.8968 12.1148 46.0066 13.2084 45.7974 14.2638C45.5882 15.3192 45.0694 16.2891 44.3068 17.0506C43.5442 17.8122 42.572 18.3312 41.5133 18.5419C40.4545 18.7526 39.3568 18.6457 38.3591 18.2345C37.3614 17.8233 36.5085 17.1265 35.9084 16.2321C35.3084 15.3378 34.988 14.2862 34.988 13.2103C34.9911 11.7714 35.5654 10.3921 36.5854 9.37345C37.6055 8.35485 38.9885 7.77966 40.4326 7.77345Z" fill="#1A4073"/>
</g>
<defs>
<clipPath id="clip0">
<rect width="134" height="40" fill="white" transform="translate(0.548828 0.0654297)"/>
</clipPath>
</defs>
</svg>
