<svg width="57" height="82" viewBox="0 0 57 82" fill="none" xmlns="http://www.w3.org/2000/svg">
<path d="M14.7412 13.7462L14.7412 35.3367" stroke="#1A4073"/>
<path d="M43.2471 21.5583L43.2471 35.3367" stroke="#1A4073"/>
<circle cx="14.7414" cy="13.7463" r="6.73993" fill="#1A4073"/>
<circle cx="43.2472" cy="20.4861" r="6.73993" fill="#1A4073"/>
<path d="M27.7261 21.5583L27.7261 30.062" stroke="#1A4073"/>
<path d="M27.7262 18.6866L33.9709 21.5582H21.4814L27.7262 18.6866Z" stroke="#1A4073" stroke-linecap="round" stroke-linejoin="round"/>
<rect x="23.9156" y="30.2006" width="7.62072" height="0.35465" stroke="#1A4073" stroke-width="0.35465"/>
<path d="M27.7505 30.694V35.0937" stroke="#1A4073"/>
<rect x="12.1426" y="41.5759" width="10.6528" height="10.6528" stroke="#1A4073"/>
<path d="M51.6687 35.0234H56.9941V81.3627H9.47656V77.1571H15.3871V71.1882H21.4731V65.0437H27.5005V58.9577H33.5865V52.9303H39.614V47.0199H45.6413V40.9924H51.6687V35.0234Z" fill="#1A4073"/>
<rect x="1.49414" y="1.36255" width="54.9999" height="80" stroke="#1A4073"/>
<rect x="1.49414" y="1.36292" width="54.9999" height="80" stroke="#1A4073"/>
<path d="M56.4412 34.885H1.6582" stroke="#1A4073"/>
</svg>
