<svg width="50" height="50" viewBox="0 0 50 50" fill="none" xmlns="http://www.w3.org/2000/svg">
<path d="M17.0513 9.9209H32.6939C36.8093 9.9209 40.1574 13.2698 40.1574 17.3848V33.0274C40.1574 37.1429 36.8094 40.4909 32.6939 40.4909H17.0513C12.9358 40.4909 9.5874 37.1428 9.5874 33.0274V17.3848C9.5874 13.2698 12.9359 9.9209 17.0513 9.9209ZM32.6939 38.0561C35.4666 38.0561 37.7221 35.8006 37.7221 33.0274V17.3848C37.7221 14.6121 35.4665 12.3572 32.6939 12.3572H17.0513C14.2787 12.3572 12.0232 14.6121 12.0232 17.3848V33.0274C12.0232 35.8006 14.2786 38.0561 17.0513 38.0561H32.6939Z" fill="#1A4073" stroke="#1A4073"/>
<path d="M33.2648 18.2566C32.4797 18.2566 31.8403 17.6174 31.8403 16.8326C31.8403 16.0484 32.4796 15.4092 33.2648 15.4092C34.0498 15.4092 34.6887 16.0483 34.6887 16.8326C34.6887 17.6176 34.0497 18.2566 33.2648 18.2566Z" fill="#1A4073" stroke="#1A4073"/>
<path d="M17.2417 25.2046C17.2417 20.9976 20.6655 17.5742 24.8721 17.5742C29.0796 17.5742 32.5034 20.9981 32.5034 25.2046C32.5034 29.4116 29.0796 32.8354 24.8721 32.8354C20.6656 32.8354 17.2417 29.4116 17.2417 25.2046ZM19.677 25.2046C19.677 28.0697 22.0083 30.4006 24.8721 30.4006C27.7374 30.4006 30.0671 28.0696 30.0671 25.2046C30.0671 22.3403 27.7372 20.0105 24.8721 20.0105C22.0085 20.0105 19.677 22.3402 19.677 25.2046Z" fill="#1A4073" stroke="#1A4073"/>
<rect x="1.06543" y="1.39844" width="47.6137" height="47.6137" stroke="#1A4073"/>
</svg>
