<svg width="139" height="48" viewBox="0 0 139 48" fill="none" xmlns="http://www.w3.org/2000/svg">
<path d="M40.8576 41.9001L37.1069 5.89793L37.0646 5.90285L37.0862 5.85666L25.7249 0.488464L25.7062 0.52777L25.6561 0.488464L13.8643 15.8266L13.8408 15.858L11.9049 29.7929L0.522949 37.5873L0.636936 37.6856L2.91471 44.5189L9.71561 45.5919V45.6126L9.97306 45.6312L10.3484 45.6902L10.3091 45.6558L30.3954 47.1199V47.0826L30.4111 47.116L40.8576 41.9001ZM12.5781 27.1231L14.2191 26.1621L15.4592 45.7324L10.0468 45.3394L12.5781 27.1231ZM14.5001 25.9439L16.4654 22.2295L25.4252 31.4929L32.1642 42.4199L19.8015 46.0381V46.0498L15.754 45.755L14.5001 25.9439ZM32.5071 42.4121L25.6846 31.3593L25.4311 26.0667L30.8189 23.8804L34.6316 25.7621L32.5317 42.4337L32.5071 42.4121ZM30.646 23.6318L25.4163 25.7552L24.3128 2.72104L25.7642 0.832391L34.9863 5.19043L30.646 23.6318ZM25.1039 25.3927L17.1051 12.1014L24.0347 3.08265L25.1039 25.3927ZM25.1343 26.0147L25.3741 31.0203L16.5902 21.9406L15.5162 14.1689L16.9115 12.3529L25.1343 26.0147ZM32.3607 42.6715L34.6208 44.6908L30.3492 46.8202L20.6092 46.1088L32.3607 42.6715ZM34.8999 44.5493L32.8039 42.6725L34.9156 25.8407L38.6496 23.6327L40.5353 41.7321L34.8999 44.5493ZM38.6241 23.3055L34.8438 25.5381L30.9526 23.617L35.2585 5.31915L36.8308 6.06007L38.6241 23.3055ZM14.1267 15.9769L15.2626 14.4971L16.2895 21.9259L14.2387 25.8083L12.6292 26.7516L14.1267 15.9769ZM3.13777 44.2555L1.07421 38.0649L9.37365 45.2382L3.13777 44.2555ZM1.00543 37.6138L11.8548 30.188L9.77162 45.189L1.00543 37.6138Z" fill="#1A4073"/>
<path d="M58.5616 24.263L59.6852 25.0995C59.2048 26.0413 58.4675 26.8277 57.5586 27.3678C56.6257 27.9037 55.565 28.1768 54.4893 28.1582C53.7117 28.1842 52.9371 28.0489 52.2143 27.761C51.4915 27.4731 50.8361 27.0388 50.2893 26.4853C49.7413 25.9274 49.3123 25.264 49.0284 24.5353C48.7445 23.8067 48.6116 23.0279 48.6377 22.2463C48.6107 21.4619 48.7439 20.6802 49.0291 19.949C49.3143 19.2177 49.7455 18.5523 50.2964 17.9932C50.8412 17.4422 51.4938 17.0096 52.2134 16.7223C52.933 16.4351 53.7042 16.2994 54.4786 16.3238C55.4715 16.3133 56.4516 16.5483 57.3318 17.0079C58.1912 17.4639 58.915 18.1388 59.43 18.9643L58.2533 19.8008C57.9066 19.1348 57.3733 18.5842 56.7186 18.2165C56.036 17.83 55.263 17.6319 54.4786 17.6423C53.8913 17.6262 53.3071 17.734 52.7642 17.9587C52.2213 18.1835 51.7319 18.5201 51.3278 18.9466C50.9122 19.3869 50.5879 19.9052 50.3738 20.4716C50.1596 21.038 50.0599 21.6412 50.0802 22.2463C50.0592 22.8505 50.1587 23.4528 50.3729 24.0181C50.5871 24.5834 50.9117 25.1004 51.3278 25.5389C51.7321 25.965 52.2216 26.3011 52.7645 26.5252C53.3075 26.7493 53.8915 26.8565 54.4786 26.8397C55.3134 26.8533 56.1342 26.6257 56.8427 26.184C57.574 25.7053 58.1668 25.0428 58.5616 24.263Z" fill="#1A4073"/>
<path d="M63.3677 24.0469V27.864H61.9961V19.1593H68.0214C68.7751 19.1139 69.52 19.3417 70.1196 19.8008C70.3721 20.023 70.5711 20.2994 70.7019 20.6094C70.8326 20.9193 70.8916 21.2547 70.8745 21.5907C70.8769 22.1831 70.6568 22.7548 70.2578 23.1927C69.8538 23.6473 69.3008 23.9427 68.6983 24.0256L71.1226 27.864H69.6482L67.1672 24.0469H63.3677ZM63.3677 22.7674H68.0107C68.3953 22.7922 68.7768 22.6847 69.0917 22.4626C69.2142 22.3522 69.3098 22.2153 69.3712 22.0624C69.4326 21.9094 69.4583 21.7444 69.4462 21.58C69.458 21.4173 69.4321 21.2539 69.3707 21.1028C69.3092 20.9516 69.2138 20.8165 69.0917 20.7082C68.7763 20.4873 68.3949 20.381 68.0107 20.4069H63.3677V22.7674Z" fill="#1A4073"/>
<path d="M75.4783 27.864V23.4124L71.498 19.1274H73.2702L76.1659 22.2251L79.0013 19.1274H80.8195L76.818 23.3805V27.864H75.4783Z" fill="#1A4073"/>
<path d="M81.5737 26.7476L82.2401 25.6028C82.8465 26.0078 83.5077 26.3241 84.2036 26.5421C84.8591 26.7653 85.5455 26.8849 86.238 26.8965C86.8986 26.9291 87.554 26.7638 88.12 26.4216C88.3348 26.2976 88.5133 26.1194 88.6377 25.9048C88.7621 25.6902 88.828 25.4468 88.8289 25.1988C88.8378 24.9708 88.7811 24.7451 88.6655 24.5484C88.5499 24.3518 88.3802 24.1925 88.1767 24.0894C87.5264 23.8031 86.8206 23.6651 86.1104 23.6854C84.519 23.6641 83.4309 23.4834 82.8355 23.1325C82.5397 22.9538 82.3001 22.6955 82.1441 22.3872C81.988 22.0789 81.9218 21.7329 81.953 21.3887C81.9494 21.0287 82.0372 20.6737 82.2083 20.3569C82.3794 20.0401 82.6282 19.772 82.9312 19.5776C83.7133 19.0828 84.6296 18.8425 85.5539 18.89C86.2934 18.8883 87.0291 18.9958 87.7372 19.209C88.4573 19.4278 89.1441 19.7438 89.7787 20.1482L89.0947 21.2859C88.5476 20.9183 87.9509 20.6306 87.3225 20.4317C86.7418 20.2379 86.1343 20.1362 85.522 20.1305C84.9685 20.1067 84.4185 20.2289 83.9271 20.4849C83.7513 20.5648 83.6014 20.6926 83.4949 20.8537C83.3883 21.0148 83.3293 21.2027 83.3246 21.3958C83.3216 21.5807 83.3792 21.7616 83.4887 21.9107C83.5981 22.0598 83.7533 22.169 83.9307 22.2216C84.6199 22.4266 85.3394 22.5105 86.0572 22.4697C87.4513 22.4697 88.5016 22.706 89.2081 23.1786C89.5533 23.404 89.8332 23.7161 90.0198 24.0837C90.2064 24.4513 90.2931 24.8615 90.2714 25.2732C90.2751 25.6771 90.1803 26.0758 89.995 26.4346C89.8097 26.7935 89.5395 27.1017 89.2081 27.3324C88.3914 27.9051 87.4082 28.1917 86.4117 28.1476C85.558 28.1489 84.7084 28.0296 83.8881 27.7932C83.0702 27.5584 82.2906 27.2062 81.5737 26.7476Z" fill="#1A4073"/>
<path d="M94.7694 27.864V20.3431H91.0869V19.1274H99.8235V20.3431H96.1304V27.864H94.7694Z" fill="#1A4073"/>
<path d="M98.7607 27.864L103.198 19.1274H104.059L108.536 27.864H107.072L105.938 25.6418H101.33L100.207 27.864H98.7607ZM101.922 24.4757H105.346L103.648 21.1299L101.922 24.4757Z" fill="#1A4073"/>
<path d="M109.835 27.8641V19.1274H111.207V26.6023H117.693V27.8605L109.835 27.8641Z" fill="#1A4073"/>
<path d="M48.6333 42.0252V30.7296H55.1087C56.0462 30.6714 56.9719 30.9631 57.7066 31.5483C58.0239 31.8398 58.2729 32.1978 58.4358 32.5966C58.5988 32.9955 58.6717 33.4254 58.6494 33.8556C58.6684 34.6227 58.4062 35.3703 57.9122 35.9574C57.4158 36.5511 56.7205 36.9441 55.9558 37.0632L58.7912 42.0252H57.2388L54.4034 37.0845H50.0368V42.0252H48.6333ZM50.051 35.7625H55.013C55.5897 35.8042 56.1622 35.6368 56.6256 35.2911C56.814 35.1167 56.9608 34.9023 57.0552 34.6637C57.1497 34.4251 57.1894 34.1684 57.1715 33.9123C57.1865 33.6556 57.1455 33.3986 57.0512 33.1593C56.9569 32.92 56.8117 32.7041 56.6256 32.5265C56.1933 32.1715 55.6421 31.9941 55.0839 32.0303H50.0368L50.051 35.7625Z" fill="#1A4073"/>
<path d="M60.9922 42.0253V33.2886H69.1865V34.5681H62.3603V36.7443H66.8438V38.0025H62.3603V40.7635H69.5622V42.0217L60.9922 42.0253Z" fill="#1A4073"/>
<path d="M70.7607 40.9088L71.4271 39.764C72.0335 40.169 72.6947 40.4852 73.3906 40.7032C74.0462 40.9265 74.7326 41.046 75.425 41.0576C76.0855 41.0892 76.7406 40.9239 77.307 40.5827C77.5218 40.4587 77.7003 40.2805 77.8247 40.0659C77.9491 39.8514 78.015 39.6079 78.0159 39.3599C78.0241 39.1317 77.9667 38.9059 77.8505 38.7092C77.7343 38.5126 77.5641 38.3534 77.3602 38.2506C76.7102 37.9634 76.0042 37.8254 75.2939 37.8465C73.706 37.8253 72.6144 37.6445 72.0225 37.2936C71.7277 37.1178 71.4881 36.8629 71.3308 36.5578C71.1736 36.2527 71.105 35.9097 71.1329 35.5676C71.1289 35.2079 71.2163 34.8531 71.3867 34.5363C71.5572 34.2196 71.8052 33.9512 72.1076 33.7564C72.8912 33.2543 73.8113 33.0079 74.741 33.0511C75.4804 33.0497 76.2161 33.1572 76.9242 33.3701C77.6443 33.5889 78.3311 33.9049 78.9657 34.3093L78.2852 35.447C77.7383 35.0792 77.1416 34.7915 76.5131 34.5929C75.9323 34.3993 75.3248 34.2976 74.7126 34.2916C74.1591 34.2675 73.6089 34.3897 73.1177 34.646C72.9414 34.7257 72.7911 34.8534 72.6839 35.0145C72.5767 35.1756 72.517 35.3635 72.5116 35.5569C72.5094 35.7422 72.5678 35.9231 72.6778 36.0721C72.7879 36.2212 72.9435 36.3303 73.1212 36.3827C73.8103 36.5883 74.5299 36.6722 75.2478 36.6308C76.6395 36.6308 77.6898 36.8671 78.3987 37.3397C78.7438 37.5651 79.0237 37.8773 79.2103 38.2449C79.3969 38.6125 79.4837 39.0227 79.4619 39.4344C79.4657 39.8382 79.3708 40.2369 79.1855 40.5957C79.0002 40.9546 78.7301 41.2628 78.3987 41.4936C77.5808 42.0668 76.5964 42.3534 75.5987 42.3088C74.7462 42.3097 73.8978 42.1904 73.0787 41.9543C72.2593 41.7205 71.4784 41.3682 70.7607 40.9088Z" fill="#1A4073"/>
<path d="M81.8989 42.0251V33.2672H83.2883V42.0251H81.8989Z" fill="#1A4073"/>
<path d="M90.1927 33.2886C91.4579 33.2298 92.6958 33.6687 93.6413 34.5114C94.076 34.9179 94.4181 35.4131 94.6444 35.9635C94.8706 36.5139 94.9758 37.1066 94.9527 37.7012C94.9785 38.2887 94.8768 38.8748 94.6548 39.4193C94.4327 39.9638 94.0954 40.4538 93.6661 40.8556C92.8131 41.6425 91.6553 42.0371 90.1927 42.0394H86.3188V33.2886H90.1927ZM90.214 34.5468H87.6869V40.7635H90.214C91.1071 40.8145 91.9848 40.5143 92.6595 39.927C92.9599 39.6342 93.1945 39.2808 93.3479 38.8903C93.5013 38.4998 93.5699 38.0812 93.5492 37.6623C93.5644 37.2432 93.4901 36.8256 93.3312 36.4375C93.1723 36.0494 92.9325 35.6997 92.6276 35.4116C91.968 34.8174 91.1009 34.5067 90.214 34.5468Z" fill="#1A4073"/>
<path d="M97.1108 42.0253V33.2886H105.302V34.5681H98.486V36.7443H102.966V38.0025H98.486V40.7635H105.681V42.0217L97.1108 42.0253Z" fill="#1A4073"/>
<path d="M107.645 42.0253V33.2886H108.353L113.907 39.4238V33.2886H115.247V42.0253H114.538L108.995 35.9079V42.0253H107.645Z" fill="#1A4073"/>
<path d="M127.49 39.8845C127.012 40.6507 126.334 41.272 125.53 41.6815C124.674 42.1036 123.73 42.315 122.776 42.2982C121.393 42.3526 120.04 41.8873 118.983 40.9939C118.504 40.5889 118.121 40.0817 117.864 39.5094C117.606 38.9372 117.48 38.3145 117.495 37.6871C117.482 37.0579 117.609 36.4336 117.866 35.8593C118.123 35.285 118.505 34.775 118.983 34.3661C120.038 33.4679 121.392 32.9986 122.776 33.0512C123.671 33.0396 124.557 33.2234 125.374 33.5899C126.122 33.9253 126.771 34.4492 127.256 35.1104L126.171 35.8653C125.807 35.3641 125.319 34.9669 124.753 34.7134C124.135 34.4377 123.464 34.2999 122.786 34.3094C121.773 34.2721 120.783 34.6132 120.008 35.2663C119.656 35.5584 119.375 35.9257 119.185 36.341C118.995 36.7563 118.901 37.2091 118.909 37.6658C118.902 38.1205 118.996 38.5711 119.186 38.9845C119.375 39.3979 119.655 39.7635 120.004 40.0546C120.777 40.7067 121.765 41.0478 122.776 41.0116C123.488 41.0248 124.193 40.8668 124.831 40.5508C125.46 40.2128 125.997 39.7261 126.394 39.1331L127.49 39.8845Z" fill="#1A4073"/>
<path d="M129.782 42.0253V33.2886H137.977V34.5681H131.15V36.7443H135.634V38.0025H131.15V40.7635H138.352V42.0217L129.782 42.0253Z" fill="#1A4073"/>
</svg>
