<svg width="90" height="131" viewBox="0 0 90 131" fill="none" xmlns="http://www.w3.org/2000/svg">
<rect x="0.5" y="0.5" width="89" height="129.179" stroke="#1A4073"/>
<path d="M60.2869 41.6129L86.9125 25.8954L58.2952 13.5405L29.678 1.18555L3.08789 16.7786L60.2869 41.6129Z" stroke="#1A4073"/>
<path d="M73.0916 106.682L86.912 112.916L60.5329 128.727L3.30078 103.935L16.8165 95.7217" stroke="#1A4073"/>
<path d="M73.0916 92.1331L86.912 98.3671L60.5329 114.179L3.30078 89.3865L17.5387 80.6983" stroke="#1A4073"/>
<path d="M73.0916 77.141L86.912 83.3749L60.5329 99.1868L3.30078 74.3943L17.4414 65.9623" stroke="#1A4073"/>
<path d="M73.0916 62.3575L86.912 68.5915L60.5329 84.4033L3.30078 59.6109L17.4349 51.1782" stroke="#1A4073"/>
<path d="M73.339 47.4209L86.912 53.567L60.5329 69.3788L3.30078 44.5864L16.8165 36.373" stroke="#1A4073"/>
<path d="M73.6706 33.5951L86.912 39.5577L60.5329 55.3695L3.30078 30.5771L16.8165 22.3638" stroke="#1A4073"/>
<path d="M40.1699 120.166V32.2941L66.2616 16.6821" stroke="#1A4073"/>
<path d="M25.2266 113.101V26.4759L51.6707 10.686" stroke="#1A4073"/>
</svg>
