<svg width="45" height="45" viewBox="0 0 45 45" fill="none" xmlns="http://www.w3.org/2000/svg">
<g clip-path="url(#clip0)">
<path d="M30.58 25.4856C30.0682 24.9526 29.4509 24.6677 28.7966 24.6677C28.1476 24.6677 27.525 24.9474 26.9921 25.4803L25.3247 27.1424C25.1875 27.0685 25.0503 26.9999 24.9184 26.9313C24.7285 26.8363 24.5491 26.7466 24.3961 26.6517C22.8342 25.6597 21.4149 24.367 20.0536 22.6943C19.394 21.8607 18.9508 21.1589 18.6289 20.4466C19.0616 20.0508 19.4626 19.6393 19.8531 19.2436C20.0008 19.0958 20.1485 18.9428 20.2963 18.7951C21.4043 17.687 21.4043 16.2518 20.2963 15.1438L18.8558 13.7033C18.6923 13.5397 18.5234 13.3709 18.3651 13.2021C18.0485 12.8749 17.7161 12.5372 17.3731 12.2206C16.8613 11.7141 16.2493 11.445 15.6055 11.445C14.9618 11.445 14.3392 11.7141 13.8116 12.2206C13.8063 12.2259 13.8063 12.2259 13.801 12.2312L12.007 14.041C11.3316 14.7164 10.9465 15.5395 10.862 16.4945C10.7354 18.0353 11.1892 19.4704 11.5374 20.4096C12.3922 22.7154 13.6691 24.8524 15.5739 27.1424C17.885 29.9019 20.6656 32.0811 23.842 33.6165C25.0556 34.1917 26.6755 34.8723 28.4853 34.9884C28.5961 34.9937 28.7122 34.999 28.8177 34.999C30.0366 34.999 31.0602 34.561 31.8622 33.6904C31.8675 33.6798 31.878 33.6746 31.8833 33.664C32.1577 33.3316 32.4743 33.0308 32.8067 32.709C33.0336 32.4927 33.2657 32.2658 33.4926 32.0283C34.015 31.4849 34.2894 30.8517 34.2894 30.2027C34.2894 29.5484 34.0097 28.9205 33.4768 28.3929L30.58 25.4856ZM32.469 31.0416C32.4637 31.0416 32.4637 31.0469 32.469 31.0416C32.2632 31.2632 32.0522 31.4637 31.8253 31.6854C31.4823 32.0125 31.1341 32.3555 30.8069 32.7406C30.274 33.3105 29.6461 33.5796 28.823 33.5796C28.7438 33.5796 28.6594 33.5796 28.5803 33.5743C27.0132 33.4741 25.5569 32.862 24.4647 32.3396C21.4782 30.8939 18.8558 28.8414 16.6767 26.2401C14.8774 24.0715 13.6744 22.0664 12.8776 19.9137C12.3869 18.5998 12.2075 17.5762 12.2867 16.6106C12.3394 15.9933 12.5769 15.4815 13.0148 15.0435L14.8141 13.2443C15.0726 13.0016 15.347 12.8696 15.6161 12.8696C15.9485 12.8696 16.2176 13.0701 16.3865 13.239C16.3917 13.2443 16.397 13.2495 16.4023 13.2548C16.7241 13.5556 17.0302 13.8669 17.352 14.1993C17.5156 14.3681 17.6845 14.537 17.8533 14.7111L19.2938 16.1516C19.8531 16.7109 19.8531 17.228 19.2938 17.7873C19.1407 17.9403 18.993 18.0933 18.84 18.241C18.3968 18.6948 17.9747 19.1169 17.5156 19.5285C17.5051 19.539 17.4945 19.5443 17.4892 19.5549C17.0355 20.0086 17.1199 20.4519 17.2149 20.7526C17.2201 20.7684 17.2254 20.7843 17.2307 20.8001C17.6053 21.7076 18.133 22.5624 18.935 23.5808L18.9402 23.5861C20.3965 25.38 21.932 26.7783 23.6257 27.8494C23.842 27.9866 24.0636 28.0974 24.2747 28.2029C24.4647 28.2979 24.6441 28.3876 24.7971 28.4826C24.8182 28.4931 24.8393 28.509 24.8604 28.5195C25.0398 28.6092 25.2086 28.6514 25.3828 28.6514C25.8207 28.6514 26.0951 28.377 26.1848 28.2873L27.9893 26.4828C28.1687 26.3034 28.4536 26.0871 28.786 26.0871C29.1132 26.0871 29.3823 26.2929 29.5459 26.4723C29.5511 26.4775 29.5511 26.4775 29.5564 26.4828L32.4637 29.3901C33.0072 29.9283 33.0072 30.4823 32.469 31.0416Z" fill="#1A4073"/>
<path d="M24.3329 15.9458C25.7153 16.1779 26.9711 16.8322 27.9736 17.8347C28.9762 18.8373 29.6252 20.093 29.8626 21.4755C29.9206 21.8237 30.2214 22.0664 30.5644 22.0664C30.6066 22.0664 30.6435 22.0612 30.6857 22.0559C31.0762 21.9926 31.3347 21.6232 31.2714 21.2328C30.9865 19.5601 30.195 18.0352 28.9867 16.8269C27.7784 15.6186 26.2535 14.8272 24.5809 14.5423C24.1904 14.4789 23.8264 14.7375 23.7578 15.1227C23.6892 15.5078 23.9425 15.8825 24.3329 15.9458Z" fill="#1A4073"/>
<path d="M35.7933 21.027C35.3237 18.2727 34.0257 15.7664 32.0312 13.7719C30.0367 11.7774 27.5304 10.4794 24.7761 10.0098C24.3909 9.94123 24.0269 10.205 23.9583 10.5902C23.8949 10.9807 24.1535 11.3448 24.5439 11.4134C27.0028 11.8302 29.2452 12.9963 31.0287 14.7744C32.8121 16.5579 33.9729 18.8003 34.3897 21.2592C34.4478 21.6074 34.7485 21.8501 35.0915 21.8501C35.1337 21.8501 35.1707 21.8448 35.2129 21.8396C35.598 21.7815 35.8619 21.4122 35.7933 21.027Z" fill="#1A4073"/>
</g>
<rect x="1.48633" y="1.14954" width="42.9031" height="42.9031" stroke="#1A4073"/>
<defs>
<clipPath id="clip0">
<rect width="25" height="25" fill="white" transform="translate(10.8223 9.99896)"/>
</clipPath>
</defs>
</svg>
