<svg width="57" height="82" viewBox="0 0 57 82" fill="none" xmlns="http://www.w3.org/2000/svg">
<g clip-path="url(#clip0)">
<path d="M28.994 11.9512C22.9494 11.9512 18.0371 16.8634 18.0371 22.908C18.0371 28.9526 22.9494 33.8649 28.994 33.8649C35.0386 33.8649 39.9508 28.9526 39.9508 22.908C39.9508 16.8634 35.0384 11.9512 28.994 11.9512Z" fill="#1A4073"/>
<path d="M28.9938 37.9721C18.9005 37.9721 10.2685 31.7374 6.7048 22.908C10.2685 14.0786 18.9005 7.84399 28.9938 7.84399C39.0972 7.84399 47.7191 14.0785 51.2828 22.908C47.7191 31.7375 39.0972 37.9721 28.9938 37.9721ZM18.1177 22.9079C18.1177 28.9116 22.9901 33.784 28.9938 33.784C34.9975 33.784 39.8698 28.9117 39.8698 22.908C39.8698 16.9043 34.9975 12.032 28.9938 12.032C22.9901 12.032 18.1177 16.9042 18.1177 22.9079Z" stroke="#1A4073"/>
</g>
<path d="M28.9937 38.0957V72.4207H40.1958" stroke="#1A4073"/>
<path d="M29.2661 69.834H36.3808" stroke="#1A4073"/>
<path d="M28.9014 67.4746H40.0466" stroke="#1A4073"/>
<rect x="1.49414" y="0.580811" width="54.9999" height="80" stroke="#1A4073"/>
<defs>
<clipPath id="clip0">
<rect width="45.6545" height="45.6545" fill="white" transform="translate(6.1665 0.0808105)"/>
</clipPath>
</defs>
</svg>
