<svg width="49" height="50" viewBox="0 0 49 50" fill="none" xmlns="http://www.w3.org/2000/svg">
<path d="M17.0343 27.0176L17.1058 27.252L19.9218 36.4792L19.9218 36.4793C20.0003 36.737 20.2946 36.8151 20.4833 36.6579L20.4839 36.6574L24.5395 33.2892L24.5395 33.2892C25.1414 32.7894 26.0014 32.764 26.631 33.2301L33.9456 38.6407L33.9457 38.6407C34.1468 38.7896 34.4462 38.6866 34.5017 38.4145L34.5017 38.4145L39.8599 12.1545L17.0343 27.0176ZM17.0343 27.0176L16.8053 26.9306M17.0343 27.0176L16.8053 26.9306M16.8053 26.9306L9.53027 24.1642C9.53021 24.1642 9.53015 24.1642 9.53009 24.1641C9.2173 24.0446 9.21563 23.5845 9.52663 23.4623L9.34373 22.9969L9.52663 23.4623L39.3848 11.7266L39.3852 11.7264M16.8053 26.9306L39.3852 11.7264M39.3852 11.7264C39.6293 11.6302 39.9227 11.845 39.86 12.1542L39.3852 11.7264ZM18.7236 25.5022L18.724 25.5019L32.9424 16.5795L32.9427 16.5793C33.3295 16.3369 33.739 16.502 33.9362 16.7658C34.1316 17.0274 34.1754 17.459 33.8503 17.7661L33.8507 17.7658L33.5069 17.4027L33.8502 17.7663L18.7236 25.5022ZM18.7236 25.5022C17.9886 25.9643 17.6479 26.8633 17.8826 27.7011M18.7236 25.5022L17.8826 27.7011M17.8826 27.7011L18.3641 27.5663L17.8825 27.7008L17.8826 27.7011ZM22.1167 28.8791L21.7728 28.5161L22.1166 28.8791C22.1166 28.8791 22.1167 28.8791 22.1167 28.8791ZM21.5144 30.0647L21.5144 30.0645L21.0187 29.9989L21.5143 30.0649C21.5143 30.0648 21.5143 30.0648 21.5144 30.0647ZM21.115 33.0827L20.6193 33.0172L21.115 33.0828C21.115 33.0828 21.115 33.0827 21.115 33.0827Z" fill="#1A4073" stroke="#1A4073"/>
<rect x="0.774414" y="1.39844" width="47.6137" height="47.6137" stroke="#1A4073"/>
</svg>
