<svg width="49" height="49" viewBox="0 0 49 49" fill="none" xmlns="http://www.w3.org/2000/svg">
<path d="M16.7706 26.42L16.8421 26.6543L19.6581 35.8815L19.6581 35.8817C19.7367 36.1393 20.0309 36.2175 20.2196 36.0602L20.2202 36.0597L24.2758 32.6915L24.2759 32.6915C24.8777 32.1918 25.7377 32.1663 26.3673 32.6325L33.6819 38.043L33.682 38.0431C33.8831 38.1919 34.1825 38.0889 34.238 37.8169L34.238 37.8168L39.5962 11.5568L16.7706 26.42ZM16.7706 26.42L16.5416 26.3329M16.7706 26.42L16.5416 26.3329M16.5416 26.3329L9.2666 23.5666C9.26654 23.5665 9.26648 23.5665 9.26642 23.5665C8.95363 23.4469 8.95196 22.9868 9.26296 22.8646L9.08006 22.3993L9.26296 22.8646L39.1211 11.1289L39.1215 11.1288M16.5416 26.3329L39.1215 11.1288M39.1215 11.1288C39.3657 11.0326 39.659 11.2474 39.5963 11.5566L39.1215 11.1288ZM18.4599 24.9045L18.4603 24.9043L32.6787 15.9818L32.679 15.9817C33.0659 15.7393 33.4754 15.9043 33.6725 16.1682C33.8679 16.4297 33.9117 16.8614 33.5867 17.1685L33.587 17.1681L33.2432 16.8051L33.5865 17.1686L18.4599 24.9045ZM18.4599 24.9045C17.7249 25.3666 17.3842 26.2656 17.6189 27.1035M18.4599 24.9045L17.6189 27.1035M17.6189 27.1035L18.1004 26.9686L17.6188 27.1031L17.6189 27.1035ZM21.853 28.2814L21.5091 27.9184L21.853 28.2815C21.853 28.2815 21.853 28.2814 21.853 28.2814ZM21.2507 29.4671L21.2507 29.4669L20.755 29.4013L21.2507 29.4672C21.2507 29.4672 21.2507 29.4671 21.2507 29.4671ZM20.8513 32.4851L20.3557 32.4196L20.8513 32.4851C20.8513 32.4851 20.8513 32.4851 20.8513 32.4851Z" fill="#1A4073" stroke="#1A4073"/>
<rect x="0.510742" y="0.800781" width="47.6137" height="47.6137" stroke="#1A4073"/>
</svg>
