<svg width="46" height="46" viewBox="0 0 46 46" fill="none" xmlns="http://www.w3.org/2000/svg">
<path d="M32.2493 25.5137C30.5135 24.1477 28.8638 22.7434 27.7651 21.6448C26.3369 20.2166 25.0643 18.8323 23.9584 17.5139C25.6834 12.1837 26.4396 9.43536 26.4396 7.97039C26.4396 1.74668 24.191 0.470337 20.8146 0.470337C18.2492 0.470337 15.1896 1.80329 15.1896 8.14987C15.1896 10.9478 16.7222 14.3444 19.7599 18.2921C19.0165 20.5607 18.143 23.1774 17.1617 26.1272C16.6892 27.5426 16.1766 28.8536 15.6345 30.0658C15.1933 30.2617 14.7647 30.4613 14.3509 30.6682C12.8605 31.4135 11.4451 32.0835 10.1322 32.7062C4.14453 35.5406 0.189453 37.4157 0.189453 41.118C0.189453 43.806 3.11006 45.4703 5.81445 45.4703C9.30072 45.4703 14.565 40.8139 18.4102 32.9697C22.4019 31.395 27.3642 30.2285 31.2808 29.498C34.4192 31.9113 37.8854 34.2203 39.5645 34.2203C44.2135 34.2203 45.1895 31.5323 45.1895 29.2782C45.1895 24.8452 40.1247 24.8452 37.6894 24.8452C36.9332 24.8454 34.9045 25.0688 32.2493 25.5137ZM5.81445 41.7204C4.74324 41.7204 4.01814 41.215 3.93939 41.118C3.93939 39.7886 7.90361 37.91 11.7379 36.0936C11.9814 35.9783 12.2287 35.8628 12.4796 35.7438C9.66336 39.8272 6.87828 41.7204 5.81445 41.7204ZM18.9395 8.14987C18.9395 4.22045 20.1591 4.22045 20.8146 4.22045C22.1403 4.22045 22.6896 4.22045 22.6896 7.97039C22.6896 8.76141 22.1623 10.739 21.1972 13.8262C19.7249 11.5593 18.9395 9.61659 18.9395 8.14987ZM20.3769 28.3025C20.4941 27.9766 20.6077 27.647 20.7175 27.3137C21.4133 25.2263 22.0396 23.3513 22.598 21.6631C23.3762 22.52 24.2149 23.3971 25.114 24.2961C25.4656 24.6476 26.3371 25.4387 27.4981 26.4292C25.187 26.9328 22.728 27.5572 20.3769 28.3025ZM41.4395 29.2784C41.4395 30.1208 41.4395 30.4704 39.7 30.4815C39.1892 30.3716 38.0081 29.6759 36.5505 28.6834C37.0796 28.6249 37.4697 28.5955 37.6894 28.5955C40.4599 28.5955 41.2455 28.8664 41.4395 29.2784Z" fill="#AADBF6"/>
</svg>
