<svg width="49" height="50" viewBox="0 0 49 50" fill="none" xmlns="http://www.w3.org/2000/svg">
<g clip-path="url(#clip0)">
<path d="M18.4638 31.2618C22.1053 34.9032 26.5532 37.7315 31.7137 39.8335C35.2968 41.2931 38.3228 39.7689 39.5604 36.0891C39.7824 35.4286 39.7976 34.7819 39.5588 34.1327C38.9817 32.5636 33.5119 28.5897 31.8754 28.5005C30.6202 28.4323 29.9406 29.2851 29.3658 30.1319C28.2798 31.7304 26.9028 31.7394 25.3669 31.0562C23.8216 30.3684 22.4694 29.4863 21.3543 28.3713C20.2389 27.2559 19.3569 25.9036 18.6694 24.3583C17.9858 22.8224 17.9948 21.4458 19.5937 20.3594C20.4402 19.785 21.2933 19.1054 21.2248 17.8502C21.1359 16.2137 17.162 10.7439 15.5929 10.1668C14.9433 9.92797 14.2966 9.94324 13.6361 10.1652C9.95628 11.4028 8.43252 14.4288 9.89207 18.0119C11.9941 23.1724 14.8224 27.6203 18.4638 31.2618Z" fill="#1A4073"/>
<path d="M25.5533 12.0028C26.3551 11.8756 27.1789 11.847 28.0006 11.9186C30.5337 12.1379 32.9439 13.2744 34.7875 15.1181C36.5759 16.9065 37.6761 19.2191 37.8851 21.6301C37.9564 22.4534 37.9219 23.2795 37.7822 24.0841C37.6827 24.6564 38.0664 25.2014 38.6388 25.3009C38.6999 25.3114 38.7605 25.3165 38.8201 25.3165C39.3224 25.3165 39.7667 24.956 39.8556 24.4442C40.0267 23.4608 40.069 22.4526 39.9821 21.448C39.7303 18.5446 38.4141 15.768 36.276 13.6299C34.0824 11.4363 31.2083 10.084 28.1827 9.8213C27.1902 9.73556 26.1946 9.77001 25.2237 9.92388C24.6497 10.0151 24.2582 10.5542 24.349 11.1282C24.4399 11.7021 24.9786 12.0936 25.5533 12.0028Z" fill="#1A4073"/>
<path d="M35.2773 24.3905C35.3223 24.396 35.3669 24.3987 35.4116 24.3987C35.9335 24.3987 36.3864 24.0103 36.4542 23.4791C36.5262 22.9098 36.5376 22.328 36.4874 21.7502C36.307 19.6677 35.3509 17.6644 33.7958 16.1093C32.1851 14.4986 30.0843 13.5061 27.8801 13.3151C27.2599 13.2614 26.637 13.2736 26.0286 13.3511C25.4519 13.4247 25.0444 13.952 25.118 14.5283C25.1916 15.105 25.7205 15.5122 26.2952 15.439C26.7553 15.3803 27.2274 15.3713 27.6984 15.412C29.4097 15.5604 31.0466 16.3363 32.3073 17.5974C33.5127 18.8029 34.2527 20.3423 34.3905 21.9318C34.4277 22.3613 34.4195 22.7924 34.3662 23.2136C34.2926 23.7903 34.701 24.3169 35.2773 24.3905Z" fill="#1A4073"/>
<path d="M31.8779 23.7669C31.9022 23.7689 31.9261 23.7697 31.9504 23.7697C32.4989 23.7697 32.9616 23.3441 32.9992 22.7886C33.0157 22.5478 33.0133 22.3007 32.9918 22.0541C32.758 19.3574 30.3792 17.0541 27.576 16.8114C27.3474 16.7914 27.1183 16.7863 26.8952 16.7953C26.3142 16.8192 25.8628 17.3094 25.8866 17.89C25.9109 18.471 26.4019 18.9216 26.9817 18.8981C27.116 18.8926 27.255 18.8962 27.3944 18.9083C29.1487 19.0602 30.7516 20.5843 30.8948 22.2361C30.907 22.3747 30.9085 22.5125 30.8995 22.6457C30.8596 23.2255 31.2977 23.7278 31.8779 23.7669Z" fill="#1A4073"/>
<path d="M0.879883 48.8834V1.27344H48.4899V48.8834H0.879883Z" stroke="#1A4073"/>
</g>
<defs>
<clipPath id="clip0">
<rect width="48.61" height="48.61" fill="white" transform="translate(0.379883 0.773438)"/>
</clipPath>
</defs>
</svg>
